<svg width="203" height="40" viewBox="0 0 203 40" fill="none" xmlns="http://www.w3.org/2000/svg">
<path d="M31 11.359L27.4779 11.2968L25.692 8.40939L24.8083 11.7635L21 12.4169L24.4599 13.8792L24.771 14.0099L24.0367 17.1835L26.1898 15.2731L29.687 17.1835L28.2744 13.3316L31 11.359Z" fill="#E43A12"/>
<path d="M4.19731 9.03806L6.60556 17.3426L1 23.6955L9.67831 23.3633L13.8306 32L15.2008 22.8651V22.0346L23.2977 21.4948L17.1939 17.7162L19.1869 8L10.8824 14.1453L4.19731 9.03806Z" fill="#E43A12"/>
<path d="M8.06548 33.625L6.79762 31.4881L7.88094 29.3452L5.52976 30.0536L3.74404 28L4.14284 30.625L4.17857 30.8571L2 31.5952L3.94046 32.1905L4.08927 35L5.87499 32.7321L8.06548 33.625Z" fill="#E43A12"/>
<path d="M21.7911 26.3185L22.387 28.3733L21 29.9452L23.1473 29.863L24.1747 32L24.4213 29.6884V29.4829L26.4247 29.339L24.9144 28.4144L25.4075 26L23.3528 27.5308L21.7911 26.3185Z" fill="#E43A12"/>
<path d="M40.8984 14.2422C40.638 14.1641 40.4818 13.9948 40.4297 13.7344C40.3646 13.5521 40.3841 13.3568 40.4883 13.1484C40.5924 12.9271 40.7552 12.8034 40.9766 12.7773C42.2396 12.582 43.5026 12.4779 44.7656 12.4648C46.0417 12.4388 47.3177 12.4193 48.5938 12.4062C48.8411 12.4062 49.0299 12.4844 49.1602 12.6406C49.2904 12.7969 49.3555 12.9727 49.3555 13.168C49.3555 13.3633 49.2904 13.5456 49.1602 13.7148C49.0299 13.8711 48.8411 13.9492 48.5938 13.9492C47.5781 13.9753 46.556 13.9883 45.5273 13.9883C44.4987 13.9883 43.4701 14.0404 42.4414 14.1445C42.4674 14.6654 42.5 15.1862 42.5391 15.707C42.5781 16.2148 42.6172 16.7292 42.6562 17.25C43.6458 17.1979 44.6289 17.1328 45.6055 17.0547C46.5951 16.9766 47.5846 16.9635 48.5742 17.0156C48.8216 17.0286 49.0104 17.1198 49.1406 17.2891C49.2708 17.4583 49.3359 17.6406 49.3359 17.8359C49.3359 18.0312 49.2708 18.207 49.1406 18.3633C49.0104 18.5195 48.8216 18.5911 48.5742 18.5781C47.5977 18.526 46.6276 18.5391 45.6641 18.6172C44.7135 18.6953 43.75 18.7604 42.7734 18.8125C42.8516 19.75 42.9232 20.6875 42.9883 21.625C43.0664 22.5495 43.1185 23.4805 43.1445 24.418C43.6003 24.3138 44.0625 24.2161 44.5312 24.125C45 24.0208 45.4688 23.9427 45.9375 23.8906C46.4062 23.8255 46.875 23.793 47.3438 23.793C47.8125 23.793 48.2812 23.832 48.75 23.9102C48.9583 23.9492 49.1146 24.0729 49.2188 24.2812C49.3229 24.4896 49.349 24.6849 49.2969 24.8672C49.2318 25.0885 49.1081 25.2448 48.9258 25.3359C48.7435 25.4271 48.5417 25.4531 48.3203 25.4141C47.9036 25.3359 47.4805 25.3099 47.0508 25.3359C46.6211 25.362 46.1979 25.4076 45.7812 25.4727C45.2995 25.5508 44.8177 25.6419 44.3359 25.7461C43.8672 25.8503 43.3984 25.9609 42.9297 26.0781C42.7083 26.1302 42.5 26.0911 42.3047 25.9609C42.1224 25.9349 41.9596 25.8633 41.8164 25.7461C41.6732 25.6289 41.6016 25.4531 41.6016 25.2188C41.5755 24.112 41.5234 23.0182 41.4453 21.9375C41.3802 20.8568 41.3021 19.7695 41.2109 18.6758C41.0677 18.5326 40.9831 18.3568 40.957 18.1484C40.944 17.9271 41.0026 17.7383 41.1328 17.582C41.0286 16.4753 40.9505 15.362 40.8984 14.2422ZM51.7773 21.6641C51.4388 21.4167 51.1979 21.1107 51.0547 20.7461C50.9115 20.3685 50.9049 19.9714 51.0352 19.5547C51.1654 19.1771 51.3672 18.8385 51.6406 18.5391C51.9141 18.2396 52.2266 17.9987 52.5781 17.8164C52.9688 17.6081 53.3854 17.4453 53.8281 17.3281C54.2708 17.2109 54.7201 17.1458 55.1758 17.1328C55.6315 17.1198 56.0807 17.1654 56.5234 17.2695C56.9792 17.3607 57.4089 17.5104 57.8125 17.7188C58.0339 17.8359 58.1576 17.9922 58.1836 18.1875C58.2096 18.3828 58.1706 18.5651 58.0664 18.7344C57.9753 18.9036 57.832 19.0273 57.6367 19.1055C57.4414 19.1836 57.2331 19.1641 57.0117 19.0469C56.6992 18.8776 56.3477 18.7669 55.957 18.7148C55.5664 18.6628 55.1693 18.6628 54.7656 18.7148C54.375 18.7539 54.0039 18.8516 53.6523 19.0078C53.3008 19.1641 53.0078 19.3659 52.7734 19.6133C52.7083 19.6784 52.6628 19.724 52.6367 19.75C52.6237 19.776 52.5977 19.8346 52.5586 19.9258L52.5195 20.1406C52.5586 20.2578 52.5911 20.3294 52.6172 20.3555C52.8776 20.5247 53.1445 20.6354 53.418 20.6875C53.7044 20.7266 53.9909 20.7526 54.2773 20.7656C54.681 20.7917 55.0911 20.8177 55.5078 20.8438C55.9375 20.8568 56.3477 20.9089 56.7383 21C57.1419 21.0911 57.513 21.2409 57.8516 21.4492C58.1901 21.6576 58.4766 21.9635 58.7109 22.3672C58.9714 22.8229 59.0885 23.2982 59.0625 23.793C59.0495 24.2747 58.8607 24.7109 58.4961 25.1016C58.1315 25.4922 57.7083 25.7656 57.2266 25.9219C56.7448 26.0651 56.2565 26.1693 55.7617 26.2344C55.319 26.2865 54.8568 26.2995 54.375 26.2734C53.9062 26.2474 53.4505 26.1693 53.0078 26.0391C52.5781 25.9219 52.1745 25.7396 51.7969 25.4922C51.4193 25.2318 51.1068 24.8932 50.8594 24.4766C50.7422 24.2682 50.7227 24.0729 50.8008 23.8906C50.8789 23.6953 50.9961 23.5521 51.1523 23.4609C51.3216 23.3568 51.5039 23.3177 51.6992 23.3438C51.9076 23.3698 52.0768 23.487 52.207 23.6953C52.3893 23.9948 52.6432 24.2227 52.9688 24.3789C53.2943 24.5352 53.6458 24.6458 54.0234 24.7109C54.4141 24.763 54.8047 24.776 55.1953 24.75C55.5859 24.7109 55.9375 24.6589 56.25 24.5938C56.4193 24.5547 56.5885 24.5026 56.7578 24.4375C56.9401 24.3594 57.0898 24.2682 57.207 24.1641C57.3372 24.0599 57.4284 23.9427 57.4805 23.8125C57.5326 23.6693 57.526 23.513 57.4609 23.3438C57.3307 23.0182 57.1094 22.7839 56.7969 22.6406C56.4974 22.4974 56.1784 22.4128 55.8398 22.3867C55.5013 22.3607 55.1562 22.3477 54.8047 22.3477C54.4531 22.3477 54.1016 22.3346 53.75 22.3086C53.3984 22.2695 53.0534 22.2044 52.7148 22.1133C52.3763 22.0221 52.0638 21.8724 51.7773 21.6641ZM66.4844 19.1836C66.7318 19.1836 66.9141 19.2617 67.0312 19.418C67.1615 19.5742 67.2266 19.75 67.2266 19.9453C67.2266 20.1406 67.1615 20.3229 67.0312 20.4922C66.9141 20.6484 66.7318 20.7266 66.4844 20.7266C66.1719 20.7396 65.8594 20.7396 65.5469 20.7266C65.2474 20.7005 64.9479 20.6745 64.6484 20.6484C64.6615 21.6771 64.6419 22.7057 64.5898 23.7344C64.5508 24.763 64.4466 25.7852 64.2773 26.8008C64.2513 27.0221 64.1341 27.1849 63.9258 27.2891C63.7174 27.3932 63.5156 27.4128 63.3203 27.3477C63.099 27.2826 62.9427 27.1589 62.8516 26.9766C62.7734 26.8073 62.7539 26.612 62.793 26.3906C62.9492 25.401 63.0339 24.4115 63.0469 23.4219C63.0729 22.4323 63.0729 21.4362 63.0469 20.4336C62.5521 20.3555 62.0508 20.2773 61.543 20.1992C61.0352 20.1081 60.5339 20.0299 60.0391 19.9648C59.8177 19.9388 59.6615 19.8216 59.5703 19.6133C59.4661 19.3919 59.4401 19.1901 59.4922 19.0078C59.5573 18.7865 59.681 18.6367 59.8633 18.5586C60.0456 18.4674 60.2409 18.4349 60.4492 18.4609C60.8789 18.526 61.3086 18.5977 61.7383 18.6758C62.168 18.7409 62.6042 18.806 63.0469 18.8711C63.0339 18.806 63.0273 18.7083 63.0273 18.5781C63.0273 17.4062 63.0208 16.2474 63.0078 15.1016C63.0078 13.9557 63.0664 12.7969 63.1836 11.625C63.2096 11.4167 63.2878 11.2344 63.418 11.0781C63.5612 10.9219 63.7435 10.8438 63.9648 10.8438C64.1602 10.8438 64.3424 10.9219 64.5117 11.0781C64.694 11.2344 64.7721 11.4167 64.7461 11.625C64.6159 12.875 64.5508 14.1185 64.5508 15.3555C64.5638 16.5794 64.5833 17.8229 64.6094 19.0859C64.9219 19.112 65.2344 19.138 65.5469 19.1641C65.8594 19.1771 66.1719 19.1836 66.4844 19.1836ZM68.5938 18.0508C68.6068 17.8034 68.6979 17.6211 68.8672 17.5039C69.0365 17.3737 69.2188 17.3086 69.4141 17.3086C69.6094 17.3086 69.7786 17.3737 69.9219 17.5039C70.0781 17.6211 70.1497 17.8034 70.1367 18.0508C70.1367 18.1289 70.1302 18.2135 70.1172 18.3047C70.1172 18.3828 70.1172 18.4609 70.1172 18.5391C70.5339 18.3307 70.9701 18.1549 71.4258 18.0117C71.8945 17.8555 72.3568 17.7578 72.8125 17.7188C73.2812 17.6797 73.7305 17.7188 74.1602 17.8359C74.6029 17.9401 75.0065 18.1484 75.3711 18.4609C75.5534 18.6302 75.6315 18.8125 75.6055 19.0078C75.5924 19.2031 75.5143 19.3724 75.3711 19.5156C75.2409 19.6458 75.0716 19.7305 74.8633 19.7695C74.6549 19.7956 74.4531 19.7305 74.2578 19.5742C74.1146 19.457 73.9518 19.3724 73.7695 19.3203C73.6003 19.2682 73.4115 19.2487 73.2031 19.2617C73.0078 19.2617 72.806 19.2812 72.5977 19.3203C72.4023 19.3594 72.2135 19.4049 72.0312 19.457C71.3411 19.6784 70.6966 19.9714 70.0977 20.3359C70.1237 20.974 70.1628 21.612 70.2148 22.25C70.2669 22.7839 70.3125 23.3372 70.3516 23.9102C70.3906 24.4701 70.5013 25.0039 70.6836 25.5117C70.7617 25.7461 70.7422 25.9414 70.625 26.0977C70.5208 26.2669 70.3711 26.3776 70.1758 26.4297C69.9935 26.4818 69.7982 26.4688 69.5898 26.3906C69.3945 26.3125 69.2578 26.1562 69.1797 25.9219C69.0755 25.6224 69.0039 25.3164 68.9648 25.0039C68.9258 24.6914 68.8867 24.3789 68.8477 24.0664C68.8216 23.7669 68.7891 23.4674 68.75 23.168C68.724 22.8555 68.6979 22.5495 68.6719 22.25C68.6068 21.5469 68.5612 20.8503 68.5352 20.1602C68.5221 19.457 68.5417 18.7539 68.5938 18.0508ZM77.0898 18.4219C77.3372 18.0833 77.6302 17.7839 77.9688 17.5234C78.3203 17.263 78.6914 17.0612 79.082 16.918C79.4727 16.7617 79.8763 16.6836 80.293 16.6836C80.7096 16.6706 81.1263 16.7487 81.543 16.918C81.9466 17.0742 82.3112 17.2891 82.6367 17.5625C82.9622 17.8229 83.2161 18.1615 83.3984 18.5781C83.5417 18.8906 83.6263 19.2292 83.6523 19.5938C83.6784 19.9583 83.5807 20.2904 83.3594 20.5898C83.1641 20.8633 82.9232 21.0716 82.6367 21.2148C82.3633 21.3581 82.0638 21.4622 81.7383 21.5273C81.4258 21.5924 81.1003 21.625 80.7617 21.625C80.4362 21.625 80.1237 21.6185 79.8242 21.6055C79.4857 21.5924 79.1471 21.5664 78.8086 21.5273C78.4831 21.4883 78.151 21.4492 77.8125 21.4102C77.9167 21.9961 78.125 22.5169 78.4375 22.9727C78.75 23.4284 79.1732 23.7734 79.707 24.0078C79.8503 24.0599 79.9609 24.099 80.0391 24.125C80.0781 24.138 80.1107 24.151 80.1367 24.1641C80.1758 24.1641 80.2148 24.1641 80.2539 24.1641C80.3581 24.1771 80.4427 24.1901 80.5078 24.2031C80.5859 24.2031 80.6576 24.1966 80.7227 24.1836C80.8138 24.1706 80.8724 24.1641 80.8984 24.1641C80.9375 24.151 80.9766 24.138 81.0156 24.125C81.1589 24.0859 81.2826 24.0404 81.3867 23.9883C81.5039 23.9362 81.6406 23.8516 81.7969 23.7344C81.875 23.6693 81.9792 23.5716 82.1094 23.4414C82.2396 23.3112 82.3503 23.194 82.4414 23.0898C82.5716 22.9076 82.7279 22.7839 82.9102 22.7188C83.1055 22.6536 83.3008 22.6797 83.4961 22.7969C83.6654 22.901 83.7826 23.0638 83.8477 23.2852C83.9258 23.4935 83.8997 23.6888 83.7695 23.8711C83.3919 24.3789 82.9427 24.8151 82.4219 25.1797C81.9141 25.5312 81.3281 25.7201 80.6641 25.7461C80.1302 25.7721 79.6159 25.681 79.1211 25.4727C78.6263 25.2513 78.1901 24.9583 77.8125 24.5938C77.3438 24.138 76.9727 23.6107 76.6992 23.0117C76.4258 22.4128 76.276 21.8008 76.25 21.1758C76.1328 21.0846 76.0417 20.974 75.9766 20.8438C75.9245 20.7005 75.9049 20.5573 75.918 20.4141C75.944 20.2708 75.9961 20.1406 76.0742 20.0234C76.1523 19.8932 76.2695 19.8086 76.4258 19.7695C76.569 19.2878 76.7904 18.8385 77.0898 18.4219ZM81.7773 18.8906C81.6341 18.7083 81.4128 18.5456 81.1133 18.4023C80.8659 18.2982 80.5729 18.2461 80.2344 18.2461C79.9089 18.2461 79.6289 18.3047 79.3945 18.4219C79.0951 18.5651 78.8281 18.7669 78.5938 19.0273C78.3594 19.2747 78.1706 19.5547 78.0273 19.8672C78.3398 19.9062 78.6523 19.9453 78.9648 19.9844C79.2773 20.0234 79.5898 20.0495 79.9023 20.0625C80.0716 20.0625 80.2409 20.0625 80.4102 20.0625C80.5794 20.0625 80.7487 20.056 80.918 20.043C80.9701 20.043 81.0156 20.043 81.0547 20.043C81.1068 20.0299 81.1589 20.0234 81.2109 20.0234C81.3281 19.9974 81.4128 19.9844 81.4648 19.9844C81.5299 19.9714 81.5951 19.9518 81.6602 19.9258C81.7122 19.9128 81.7773 19.8932 81.8555 19.8672C81.9206 19.8411 81.9596 19.8216 81.9727 19.8086C81.9857 19.7956 82.0052 19.7826 82.0312 19.7695L82.0898 19.5352C82.0638 19.4831 82.0443 19.4375 82.0312 19.3984C82.0312 19.3464 82.0182 19.3008 81.9922 19.2617C81.9792 19.2227 81.9466 19.1641 81.8945 19.0859C81.8555 19.0078 81.8164 18.9427 81.7773 18.8906ZM86.4844 10.668C86.7188 10.668 86.901 10.7461 87.0312 10.9023C87.1615 11.0586 87.2396 11.2409 87.2656 11.4492C87.3958 12.6862 87.4674 13.9232 87.4805 15.1602C87.4935 16.3971 87.474 17.6341 87.4219 18.8711C87.3828 20.1081 87.3177 21.3451 87.2266 22.582C87.1354 23.819 87.0443 25.0495 86.9531 26.2734C86.9271 26.4948 86.8424 26.6771 86.6992 26.8203C86.569 26.9766 86.3932 27.0547 86.1719 27.0547C85.9766 27.0547 85.7943 26.9766 85.625 26.8203C85.4557 26.6771 85.3776 26.4948 85.3906 26.2734C85.4818 25.0495 85.5729 23.819 85.6641 22.582C85.7682 21.3451 85.8398 20.1081 85.8789 18.8711C85.931 17.6341 85.9505 16.3971 85.9375 15.1602C85.9245 13.9232 85.8529 12.6862 85.7227 11.4492C85.6966 11.2409 85.7682 11.0586 85.9375 10.9023C86.1068 10.7461 86.2891 10.668 86.4844 10.668ZM90.8789 25.4727C90.4362 25.2773 90.0846 25.0104 89.8242 24.6719C89.5768 24.3203 89.401 23.9362 89.2969 23.5195C89.2057 23.1029 89.1797 22.6732 89.2188 22.2305C89.2578 21.7747 89.349 21.3385 89.4922 20.9219C89.6094 20.5964 89.7396 20.2578 89.8828 19.9062C90.0391 19.5547 90.2214 19.2292 90.4297 18.9297C90.638 18.6302 90.8854 18.3763 91.1719 18.168C91.4583 17.9466 91.7969 17.8034 92.1875 17.7383C92.5911 17.6732 92.9948 17.6536 93.3984 17.6797C93.8151 17.6927 94.2253 17.7318 94.6289 17.7969C94.8112 17.8229 94.987 17.8685 95.1562 17.9336C95.3255 17.9857 95.4948 18.0443 95.6641 18.1094C95.6771 17.9141 95.7617 17.7513 95.918 17.6211C96.0872 17.4909 96.263 17.4258 96.4453 17.4258C96.6667 17.4258 96.8424 17.5039 96.9727 17.6602C97.1159 17.8034 97.2005 17.9792 97.2266 18.1875C97.2917 18.7865 97.3177 19.3854 97.3047 19.9844C97.3047 20.5833 97.2852 21.1823 97.2461 21.7812C97.2201 22.3802 97.194 22.9792 97.168 23.5781C97.1549 24.1771 97.1615 24.776 97.1875 25.375C97.2005 25.6224 97.1224 25.8112 96.9531 25.9414C96.7969 26.0586 96.6211 26.1172 96.4258 26.1172C96.2305 26.1172 96.0482 26.0586 95.8789 25.9414C95.7227 25.8112 95.638 25.6224 95.625 25.375C94.8828 25.6875 94.0951 25.8698 93.2617 25.9219C92.4284 25.9609 91.6341 25.8112 90.8789 25.4727ZM91.0156 21.2344C90.9375 21.4688 90.8659 21.7357 90.8008 22.0352C90.7357 22.3346 90.7161 22.6211 90.7422 22.8945C90.7682 23.168 90.8529 23.4219 90.9961 23.6562C91.1393 23.8776 91.3737 24.0339 91.6992 24.125C92.3633 24.3333 93.0273 24.3919 93.6914 24.3008C94.3685 24.2096 95 23.9753 95.5859 23.5977C95.638 22.9596 95.6771 22.3411 95.7031 21.7422C95.7422 21.1432 95.7552 20.5378 95.7422 19.9258C95.5208 19.7826 95.293 19.6589 95.0586 19.5547C94.8372 19.4375 94.5898 19.3594 94.3164 19.3203C94.043 19.2812 93.75 19.2552 93.4375 19.2422C93.138 19.2161 92.8451 19.2161 92.5586 19.2422C92.5326 19.2422 92.4609 19.2617 92.3438 19.3008C92.2396 19.3268 92.181 19.3464 92.168 19.3594C92.0378 19.4245 91.9206 19.5286 91.8164 19.6719C91.6471 19.9062 91.4974 20.1602 91.3672 20.4336C91.237 20.694 91.1198 20.9609 91.0156 21.2344ZM99.9219 21.6641C99.5833 21.4167 99.3424 21.1107 99.1992 20.7461C99.056 20.3685 99.0495 19.9714 99.1797 19.5547C99.3099 19.1771 99.5117 18.8385 99.7852 18.5391C100.059 18.2396 100.371 17.9987 100.723 17.8164C101.113 17.6081 101.53 17.4453 101.973 17.3281C102.415 17.2109 102.865 17.1458 103.32 17.1328C103.776 17.1198 104.225 17.1654 104.668 17.2695C105.124 17.3607 105.553 17.5104 105.957 17.7188C106.178 17.8359 106.302 17.9922 106.328 18.1875C106.354 18.3828 106.315 18.5651 106.211 18.7344C106.12 18.9036 105.977 19.0273 105.781 19.1055C105.586 19.1836 105.378 19.1641 105.156 19.0469C104.844 18.8776 104.492 18.7669 104.102 18.7148C103.711 18.6628 103.314 18.6628 102.91 18.7148C102.52 18.7539 102.148 18.8516 101.797 19.0078C101.445 19.1641 101.152 19.3659 100.918 19.6133C100.853 19.6784 100.807 19.724 100.781 19.75C100.768 19.776 100.742 19.8346 100.703 19.9258L100.664 20.1406C100.703 20.2578 100.736 20.3294 100.762 20.3555C101.022 20.5247 101.289 20.6354 101.562 20.6875C101.849 20.7266 102.135 20.7526 102.422 20.7656C102.826 20.7917 103.236 20.8177 103.652 20.8438C104.082 20.8568 104.492 20.9089 104.883 21C105.286 21.0911 105.658 21.2409 105.996 21.4492C106.335 21.6576 106.621 21.9635 106.855 22.3672C107.116 22.8229 107.233 23.2982 107.207 23.793C107.194 24.2747 107.005 24.7109 106.641 25.1016C106.276 25.4922 105.853 25.7656 105.371 25.9219C104.889 26.0651 104.401 26.1693 103.906 26.2344C103.464 26.2865 103.001 26.2995 102.52 26.2734C102.051 26.2474 101.595 26.1693 101.152 26.0391C100.723 25.9219 100.319 25.7396 99.9414 25.4922C99.5638 25.2318 99.2513 24.8932 99.0039 24.4766C98.8867 24.2682 98.8672 24.0729 98.9453 23.8906C99.0234 23.6953 99.1406 23.5521 99.2969 23.4609C99.4661 23.3568 99.6484 23.3177 99.8438 23.3438C100.052 23.3698 100.221 23.487 100.352 23.6953C100.534 23.9948 100.788 24.2227 101.113 24.3789C101.439 24.5352 101.79 24.6458 102.168 24.7109C102.559 24.763 102.949 24.776 103.34 24.75C103.73 24.7109 104.082 24.6589 104.395 24.5938C104.564 24.5547 104.733 24.5026 104.902 24.4375C105.085 24.3594 105.234 24.2682 105.352 24.1641C105.482 24.0599 105.573 23.9427 105.625 23.8125C105.677 23.6693 105.671 23.513 105.605 23.3438C105.475 23.0182 105.254 22.7839 104.941 22.6406C104.642 22.4974 104.323 22.4128 103.984 22.3867C103.646 22.3607 103.301 22.3477 102.949 22.3477C102.598 22.3477 102.246 22.3346 101.895 22.3086C101.543 22.2695 101.198 22.2044 100.859 22.1133C100.521 22.0221 100.208 21.8724 99.9219 21.6641ZM116.973 18.8711C117.441 18.5846 117.943 18.3372 118.477 18.1289C119.023 17.9206 119.577 17.8229 120.137 17.8359C120.085 16.7292 120.039 15.6289 120 14.5352C119.974 13.4414 119.954 12.3411 119.941 11.2344C119.941 10.987 120.02 10.8047 120.176 10.6875C120.332 10.5573 120.508 10.4922 120.703 10.4922C120.898 10.4922 121.074 10.5573 121.23 10.6875C121.4 10.8047 121.484 10.987 121.484 11.2344C121.497 12.5234 121.53 13.819 121.582 15.1211C121.634 16.4102 121.686 17.6992 121.738 18.9883C121.79 20.2773 121.829 21.5729 121.855 22.875C121.882 24.1641 121.875 25.4531 121.836 26.7422C121.823 26.9896 121.732 27.1784 121.562 27.3086C121.393 27.4388 121.211 27.5039 121.016 27.5039C120.82 27.5039 120.645 27.4388 120.488 27.3086C120.332 27.1914 120.26 27.0026 120.273 26.7422C120.273 26.651 120.273 26.5599 120.273 26.4688C120.273 26.3776 120.28 26.2865 120.293 26.1953C120.163 26.1823 120.033 26.1693 119.902 26.1562C119.785 26.1562 119.668 26.1562 119.551 26.1562C119.395 26.1562 119.238 26.1562 119.082 26.1562C118.926 26.1562 118.776 26.1497 118.633 26.1367C118.294 26.1107 117.956 26.0781 117.617 26.0391C117.279 26 116.947 25.9219 116.621 25.8047C116.296 25.6745 115.99 25.5182 115.703 25.3359C115.417 25.1406 115.182 24.8867 115 24.5742C114.792 24.2487 114.616 23.8971 114.473 23.5195C114.342 23.1419 114.29 22.7513 114.316 22.3477C114.342 21.944 114.434 21.5729 114.59 21.2344C114.746 20.8958 114.941 20.5833 115.176 20.2969C115.423 20.0104 115.697 19.75 115.996 19.5156C116.309 19.2812 116.634 19.0664 116.973 18.8711ZM120.312 24.6523C120.312 22.9076 120.273 21.1562 120.195 19.3984C119.766 19.3724 119.336 19.4505 118.906 19.6328C118.49 19.8021 118.105 19.9974 117.754 20.2188C117.559 20.3359 117.344 20.4727 117.109 20.6289C116.888 20.7721 116.68 20.9414 116.484 21.1367C116.302 21.319 116.152 21.5208 116.035 21.7422C115.918 21.9635 115.859 22.2044 115.859 22.4648C115.872 22.6992 115.924 22.9531 116.016 23.2266C116.107 23.487 116.23 23.7018 116.387 23.8711C116.543 24.0404 116.719 24.1706 116.914 24.2617C117.109 24.3398 117.318 24.4049 117.539 24.457C117.799 24.5091 118.047 24.5417 118.281 24.5547C118.529 24.5677 118.783 24.5807 119.043 24.5938C119.251 24.5938 119.46 24.6068 119.668 24.6328C119.876 24.6458 120.091 24.6523 120.312 24.6523ZM128.613 16.9961C129.03 16.944 129.466 16.931 129.922 16.957C130.378 16.9701 130.814 17.0482 131.23 17.1914C131.647 17.3216 132.025 17.5234 132.363 17.7969C132.702 18.0703 132.962 18.4284 133.145 18.8711C133.275 19.1836 133.34 19.5026 133.34 19.8281C133.353 20.1406 133.307 20.4466 133.203 20.7461C133.112 21.0326 132.969 21.3125 132.773 21.5859C132.591 21.8464 132.376 22.0872 132.129 22.3086C131.595 22.7904 131.009 23.2005 130.371 23.5391C129.733 23.8776 129.062 24.138 128.359 24.3203C128.06 24.3984 127.747 24.4701 127.422 24.5352C127.109 24.5872 126.79 24.6133 126.465 24.6133C126.139 24.6133 125.82 24.5807 125.508 24.5156C125.195 24.4375 124.902 24.3138 124.629 24.1445C124.434 24.0273 124.316 23.8711 124.277 23.6758C124.199 23.4544 124.115 23.2461 124.023 23.0508C123.932 22.8555 123.841 22.6536 123.75 22.4453C123.672 22.237 123.607 22.0286 123.555 21.8203C123.503 21.612 123.477 21.3971 123.477 21.1758C123.477 20.7331 123.568 20.3164 123.75 19.9258C123.945 19.5221 124.206 19.1706 124.531 18.8711C125.078 18.3503 125.71 17.9336 126.426 17.6211C127.142 17.3086 127.871 17.1003 128.613 16.9961ZM130.82 18.6758C130.469 18.5456 130.091 18.4805 129.688 18.4805C129.258 18.4674 128.828 18.513 128.398 18.6172C127.969 18.7083 127.559 18.8385 127.168 19.0078C126.803 19.151 126.426 19.3529 126.035 19.6133C125.658 19.8607 125.378 20.1667 125.195 20.5312C125.091 20.7266 125.039 20.9284 125.039 21.1367C125.052 21.332 125.085 21.5339 125.137 21.7422C125.202 21.9375 125.28 22.1393 125.371 22.3477C125.475 22.543 125.566 22.7383 125.645 22.9336C125.853 22.9857 125.983 23.0117 126.035 23.0117C126.061 23.0247 126.094 23.0312 126.133 23.0312C126.172 23.0312 126.204 23.0312 126.23 23.0312C126.491 23.0573 126.725 23.0508 126.934 23.0117C127.077 23.0117 127.259 22.9857 127.48 22.9336C127.819 22.8685 128.145 22.7839 128.457 22.6797C128.77 22.5625 129.056 22.4388 129.316 22.3086C129.616 22.1654 129.909 22.0091 130.195 21.8398C130.482 21.6706 130.723 21.4948 130.918 21.3125C131.048 21.1953 131.172 21.0716 131.289 20.9414C131.354 20.8763 131.4 20.8242 131.426 20.7852C131.491 20.694 131.543 20.6289 131.582 20.5898C131.621 20.5378 131.654 20.4792 131.68 20.4141C131.732 20.3229 131.758 20.2513 131.758 20.1992C131.771 20.1732 131.777 20.1406 131.777 20.1016C131.79 20.0625 131.803 20.0299 131.816 20.0039V19.7891C131.803 19.737 131.797 19.6979 131.797 19.6719C131.797 19.6458 131.79 19.6198 131.777 19.5938C131.738 19.5026 131.699 19.4375 131.66 19.3984C131.634 19.3464 131.602 19.2943 131.562 19.2422C131.576 19.2552 131.556 19.2357 131.504 19.1836C131.465 19.1315 131.439 19.099 131.426 19.0859L131.27 18.9297C131.204 18.8906 131.133 18.8451 131.055 18.793C130.977 18.7409 130.898 18.7018 130.82 18.6758ZM141.992 25.7461C141.992 25.9935 141.908 26.1758 141.738 26.293C141.582 26.4232 141.406 26.4883 141.211 26.4883C141.016 26.4883 140.84 26.4232 140.684 26.293C140.527 26.1758 140.449 25.9935 140.449 25.7461C140.449 24.7305 140.566 23.7539 140.801 22.8164C141.035 21.8789 141.328 20.9479 141.68 20.0234C141.589 19.8542 141.562 19.6654 141.602 19.457C141.68 19.1836 141.849 19.0143 142.109 18.9492C142.37 18.3242 142.637 17.7057 142.91 17.0938C143.197 16.4688 143.47 15.8438 143.73 15.2188C143.991 14.5938 144.232 13.9622 144.453 13.3242C144.674 12.6862 144.857 12.0352 145 11.3711C145.039 11.1758 145.117 11.0065 145.234 10.8633C145.365 10.7201 145.54 10.6484 145.762 10.6484C145.97 10.6484 146.159 10.7266 146.328 10.8828C146.497 11.026 146.569 11.2083 146.543 11.4297C146.504 12.1849 146.517 12.8815 146.582 13.5195C146.647 14.1445 146.745 14.7695 146.875 15.3945C147.005 16.0065 147.148 16.625 147.305 17.25C147.474 17.862 147.63 18.474 147.773 19.0859C147.917 19.6719 148.047 20.2578 148.164 20.8438C148.281 21.4297 148.47 21.9961 148.73 22.543C148.861 22.8164 148.997 23.0833 149.141 23.3438C149.284 23.5911 149.44 23.8451 149.609 24.1055C149.766 24.3398 149.909 24.5872 150.039 24.8477C150.169 25.0951 150.26 25.3685 150.312 25.668C150.339 25.8763 150.306 26.0716 150.215 26.2539C150.137 26.4362 149.987 26.5599 149.766 26.625C149.583 26.6771 149.388 26.651 149.18 26.5469C148.971 26.4427 148.848 26.2865 148.809 26.0781C148.757 25.7786 148.652 25.5117 148.496 25.2773C148.353 25.043 148.203 24.8021 148.047 24.5547C147.865 24.2682 147.695 23.9818 147.539 23.6953C147.396 23.3958 147.266 23.0898 147.148 22.7773C147.018 22.4518 146.908 22.1263 146.816 21.8008C146.725 21.4622 146.641 21.1237 146.562 20.7852C145.977 20.7461 145.397 20.7201 144.824 20.707C144.264 20.681 143.698 20.6354 143.125 20.5703C142.812 21.4036 142.546 22.25 142.324 23.1094C142.116 23.9688 142.005 24.8477 141.992 25.7461ZM143.828 18.832C143.802 18.8711 143.783 18.9167 143.77 18.9688C143.77 19.0078 143.757 19.0469 143.73 19.0859C144.147 19.125 144.557 19.151 144.961 19.1641C145.365 19.1641 145.775 19.1771 146.191 19.2031C146.048 18.5781 145.892 17.9596 145.723 17.3477C145.566 16.7227 145.423 16.0911 145.293 15.4531C145.059 16.026 144.818 16.5924 144.57 17.1523C144.323 17.6992 144.076 18.2591 143.828 18.832ZM153.184 26.2539C153.001 26.319 152.799 26.2995 152.578 26.1953C152.37 26.0911 152.253 25.9349 152.227 25.7266C152.044 24.5807 151.927 23.4479 151.875 22.3281C151.836 21.1953 151.816 20.056 151.816 18.9102C151.816 18.7148 151.868 18.5586 151.973 18.4414C152.077 18.3242 152.201 18.2461 152.344 18.207C152.487 18.168 152.637 18.1615 152.793 18.1875C152.949 18.2135 153.079 18.2786 153.184 18.3828C153.483 18.1354 153.802 17.9206 154.141 17.7383C154.479 17.556 154.818 17.4388 155.156 17.3867C155.508 17.3216 155.853 17.3411 156.191 17.4453C156.53 17.5365 156.849 17.7383 157.148 18.0508C157.396 18.3112 157.611 18.5911 157.793 18.8906C157.975 19.1771 158.138 19.4831 158.281 19.8086C158.477 19.3138 158.75 18.8581 159.102 18.4414C159.453 18.0247 159.902 17.7448 160.449 17.6016C160.853 17.4974 161.172 17.5234 161.406 17.6797C161.641 17.8229 161.862 18.0508 162.07 18.3633C162.292 18.6888 162.493 19.0208 162.676 19.3594C162.871 19.6979 163.053 20.043 163.223 20.3945C163.392 20.7461 163.555 21.0977 163.711 21.4492C163.867 21.8008 164.023 22.1458 164.18 22.4844C164.362 22.862 164.518 23.2396 164.648 23.6172C164.792 23.9818 164.883 24.3724 164.922 24.7891C164.948 25.0104 164.87 25.1992 164.688 25.3555C164.518 25.4987 164.336 25.5703 164.141 25.5703C163.919 25.5703 163.737 25.4987 163.594 25.3555C163.464 25.1992 163.385 25.0104 163.359 24.7891C163.333 24.4766 163.249 24.1771 163.105 23.8906C162.975 23.5911 162.845 23.2982 162.715 23.0117C162.572 22.7122 162.428 22.4062 162.285 22.0938C162.155 21.7812 162.018 21.4753 161.875 21.1758C161.732 20.8763 161.576 20.5768 161.406 20.2773C161.25 19.9779 161.081 19.6849 160.898 19.3984C160.872 19.3594 160.846 19.3203 160.82 19.2812C160.794 19.2422 160.768 19.2031 160.742 19.1641C160.482 19.3073 160.293 19.444 160.176 19.5742C160.059 19.7044 159.948 19.8802 159.844 20.1016C159.753 20.2969 159.674 20.5052 159.609 20.7266C159.557 20.9349 159.512 21.1497 159.473 21.3711C159.395 21.7878 159.336 22.224 159.297 22.6797C159.271 23.0182 159.271 23.3438 159.297 23.6562C159.336 23.9688 159.323 24.2943 159.258 24.6328C159.219 24.8411 159.095 24.9974 158.887 25.1016C158.691 25.2057 158.496 25.2318 158.301 25.1797C158.118 25.1276 157.982 25.0365 157.891 24.9062C157.812 24.763 157.76 24.6003 157.734 24.418C157.682 24.0013 157.624 23.5716 157.559 23.1289C157.493 22.6862 157.409 22.25 157.305 21.8203C157.201 21.3776 157.064 20.9544 156.895 20.5508C156.738 20.1341 156.53 19.75 156.27 19.3984C156.087 19.1641 155.898 19.0078 155.703 18.9297C155.521 18.8516 155.293 18.8841 155.02 19.0273C154.72 19.1836 154.427 19.3724 154.141 19.5938C153.854 19.8151 153.6 20.0625 153.379 20.3359C153.392 21.1693 153.418 22.0026 153.457 22.8359C153.509 23.6562 153.6 24.4766 153.73 25.2969C153.757 25.5182 153.724 25.7201 153.633 25.9023C153.555 26.0716 153.405 26.1888 153.184 26.2539ZM167.52 25.4727C167.077 25.2773 166.725 25.0104 166.465 24.6719C166.217 24.3203 166.042 23.9362 165.938 23.5195C165.846 23.1029 165.82 22.6732 165.859 22.2305C165.898 21.7747 165.99 21.3385 166.133 20.9219C166.25 20.5964 166.38 20.2578 166.523 19.9062C166.68 19.5547 166.862 19.2292 167.07 18.9297C167.279 18.6302 167.526 18.3763 167.812 18.168C168.099 17.9466 168.438 17.8034 168.828 17.7383C169.232 17.6732 169.635 17.6536 170.039 17.6797C170.456 17.6927 170.866 17.7318 171.27 17.7969C171.452 17.8229 171.628 17.8685 171.797 17.9336C171.966 17.9857 172.135 18.0443 172.305 18.1094C172.318 17.9141 172.402 17.7513 172.559 17.6211C172.728 17.4909 172.904 17.4258 173.086 17.4258C173.307 17.4258 173.483 17.5039 173.613 17.6602C173.757 17.8034 173.841 17.9792 173.867 18.1875C173.932 18.7865 173.958 19.3854 173.945 19.9844C173.945 20.5833 173.926 21.1823 173.887 21.7812C173.861 22.3802 173.835 22.9792 173.809 23.5781C173.796 24.1771 173.802 24.776 173.828 25.375C173.841 25.6224 173.763 25.8112 173.594 25.9414C173.438 26.0586 173.262 26.1172 173.066 26.1172C172.871 26.1172 172.689 26.0586 172.52 25.9414C172.363 25.8112 172.279 25.6224 172.266 25.375C171.523 25.6875 170.736 25.8698 169.902 25.9219C169.069 25.9609 168.275 25.8112 167.52 25.4727ZM167.656 21.2344C167.578 21.4688 167.507 21.7357 167.441 22.0352C167.376 22.3346 167.357 22.6211 167.383 22.8945C167.409 23.168 167.493 23.4219 167.637 23.6562C167.78 23.8776 168.014 24.0339 168.34 24.125C169.004 24.3333 169.668 24.3919 170.332 24.3008C171.009 24.2096 171.641 23.9753 172.227 23.5977C172.279 22.9596 172.318 22.3411 172.344 21.7422C172.383 21.1432 172.396 20.5378 172.383 19.9258C172.161 19.7826 171.934 19.6589 171.699 19.5547C171.478 19.4375 171.23 19.3594 170.957 19.3203C170.684 19.2812 170.391 19.2552 170.078 19.2422C169.779 19.2161 169.486 19.2161 169.199 19.2422C169.173 19.2422 169.102 19.2617 168.984 19.3008C168.88 19.3268 168.822 19.3464 168.809 19.3594C168.678 19.4245 168.561 19.5286 168.457 19.6719C168.288 19.9062 168.138 20.1602 168.008 20.4336C167.878 20.694 167.76 20.9609 167.656 21.2344ZM175.957 24.125C175.957 23.5651 175.996 22.9987 176.074 22.4258C176.165 21.7357 176.257 21.0521 176.348 20.375C176.439 19.6849 176.478 18.9883 176.465 18.2852C176.465 18.0378 176.543 17.849 176.699 17.7188C176.855 17.5885 177.031 17.5234 177.227 17.5234C177.422 17.5234 177.604 17.5885 177.773 17.7188C177.943 17.849 178.027 18.0378 178.027 18.2852C178.535 18.2461 179.017 18.2266 179.473 18.2266C179.993 18.2396 180.436 18.3893 180.801 18.6758C181.165 18.9622 181.439 19.3464 181.621 19.8281C181.777 20.2708 181.868 20.7266 181.895 21.1953C181.921 21.6641 181.94 22.1328 181.953 22.6016C181.966 23.2656 181.986 23.9297 182.012 24.5938C182.038 25.2448 182.051 25.9023 182.051 26.5664C182.051 26.8268 181.966 27.0156 181.797 27.1328C181.641 27.263 181.465 27.3281 181.27 27.3281C181.087 27.3281 180.911 27.263 180.742 27.1328C180.586 27.0156 180.508 26.8268 180.508 26.5664C180.508 25.9414 180.495 25.3294 180.469 24.7305C180.456 24.1315 180.436 23.5195 180.41 22.8945C180.384 22.556 180.371 22.2109 180.371 21.8594C180.384 21.4948 180.358 21.1628 180.293 20.8633C180.254 20.681 180.215 20.5247 180.176 20.3945C180.137 20.2513 180.065 20.1146 179.961 19.9844C179.935 19.9323 179.876 19.8867 179.785 19.8477C179.707 19.8086 179.635 19.7891 179.57 19.7891C179.375 19.7891 179.193 19.8021 179.023 19.8281C178.854 19.8542 178.678 19.8932 178.496 19.9453C178.418 19.9714 178.34 19.9974 178.262 20.0234C178.184 20.0495 178.112 20.082 178.047 20.1211C177.917 20.5898 177.819 21.0391 177.754 21.4688C177.702 21.8854 177.65 22.3086 177.598 22.7383C177.559 23.0508 177.533 23.3698 177.52 23.6953C177.52 24.0078 177.507 24.3203 177.48 24.6328C177.467 24.9453 177.428 25.2578 177.363 25.5703C177.311 25.8828 177.214 26.1823 177.07 26.4688C176.953 26.6901 176.797 26.8138 176.602 26.8398C176.406 26.8789 176.224 26.8464 176.055 26.7422C175.898 26.651 175.775 26.5078 175.684 26.3125C175.605 26.1172 175.618 25.9089 175.723 25.6875C175.84 25.4531 175.905 25.1992 175.918 24.9258C175.931 24.6523 175.944 24.3854 175.957 24.125ZM184.238 25.6094C184.056 25.5443 183.9 25.4206 183.77 25.2383C183.652 25.043 183.633 24.8477 183.711 24.6523C183.932 24.0404 184.082 23.4219 184.16 22.7969C184.238 22.1719 184.29 21.5339 184.316 20.8828C184.329 20.6875 184.336 20.4987 184.336 20.3164C184.336 20.1211 184.342 19.9258 184.355 19.7305C184.316 19.5742 184.329 19.4245 184.395 19.2812C184.421 18.9036 184.447 18.526 184.473 18.1484C184.499 17.7578 184.538 17.3737 184.59 16.9961C184.655 16.4232 184.72 15.8568 184.785 15.2969C184.863 14.724 184.915 14.1445 184.941 13.5586C184.967 13.0247 184.993 12.4974 185.02 11.9766C185.059 11.4427 185.195 10.9349 185.43 10.4531C185.547 10.2318 185.703 10.1081 185.898 10.082C186.094 10.043 186.276 10.0755 186.445 10.1797C186.615 10.2708 186.738 10.4141 186.816 10.6094C186.908 10.8047 186.895 11.013 186.777 11.2344C186.673 11.4557 186.602 11.6836 186.562 11.918C186.523 12.1523 186.497 12.3932 186.484 12.6406C186.484 12.888 186.484 13.1354 186.484 13.3828C186.484 13.6302 186.478 13.8711 186.465 14.1055C186.4 14.6914 186.335 15.2773 186.27 15.8633C186.204 16.4362 186.139 17.0156 186.074 17.6016C186.621 17.3281 187.227 17.1784 187.891 17.1523C188.411 17.1393 188.939 17.2305 189.473 17.4258C190.02 17.6081 190.462 17.9076 190.801 18.3242C190.996 18.5716 191.152 18.8451 191.27 19.1445C191.387 19.431 191.478 19.737 191.543 20.0625C191.621 20.375 191.673 20.694 191.699 21.0195C191.725 21.332 191.751 21.638 191.777 21.9375C191.816 22.5495 191.829 23.1615 191.816 23.7734C191.816 24.3724 191.803 24.9844 191.777 25.6094C191.777 25.8568 191.693 26.0391 191.523 26.1562C191.354 26.2865 191.172 26.3516 190.977 26.3516C190.781 26.3516 190.605 26.2865 190.449 26.1562C190.293 26.0391 190.221 25.8568 190.234 25.6094C190.247 25.0885 190.26 24.5677 190.273 24.0469C190.286 23.526 190.28 23.0052 190.254 22.4844C190.228 22.224 190.208 21.957 190.195 21.6836C190.182 21.4102 190.15 21.1367 190.098 20.8633C190.072 20.7331 190.046 20.6094 190.02 20.4922C190.007 20.362 189.98 20.2318 189.941 20.1016C189.928 19.9974 189.896 19.8867 189.844 19.7695C189.805 19.6523 189.779 19.5872 189.766 19.5742C189.74 19.5352 189.72 19.5026 189.707 19.4766C189.694 19.4375 189.674 19.3984 189.648 19.3594C189.531 19.2292 189.46 19.1576 189.434 19.1445C189.382 19.1055 189.336 19.0794 189.297 19.0664C189.258 19.0404 189.219 19.0143 189.18 18.9883C189.036 18.9102 188.874 18.8451 188.691 18.793C188.509 18.7409 188.333 18.7148 188.164 18.7148C187.721 18.6888 187.305 18.7669 186.914 18.9492C186.536 19.1315 186.198 19.4115 185.898 19.7891C185.872 20.6875 185.827 21.5794 185.762 22.4648C185.697 23.3372 185.508 24.2031 185.195 25.0625C185.13 25.2578 185.007 25.4141 184.824 25.5312C184.655 25.6484 184.46 25.6745 184.238 25.6094ZM195 25.4727C194.557 25.2773 194.206 25.0104 193.945 24.6719C193.698 24.3203 193.522 23.9362 193.418 23.5195C193.327 23.1029 193.301 22.6732 193.34 22.2305C193.379 21.7747 193.47 21.3385 193.613 20.9219C193.73 20.5964 193.861 20.2578 194.004 19.9062C194.16 19.5547 194.342 19.2292 194.551 18.9297C194.759 18.6302 195.007 18.3763 195.293 18.168C195.579 17.9466 195.918 17.8034 196.309 17.7383C196.712 17.6732 197.116 17.6536 197.52 17.6797C197.936 17.6927 198.346 17.7318 198.75 17.7969C198.932 17.8229 199.108 17.8685 199.277 17.9336C199.447 17.9857 199.616 18.0443 199.785 18.1094C199.798 17.9141 199.883 17.7513 200.039 17.6211C200.208 17.4909 200.384 17.4258 200.566 17.4258C200.788 17.4258 200.964 17.5039 201.094 17.6602C201.237 17.8034 201.322 17.9792 201.348 18.1875C201.413 18.7865 201.439 19.3854 201.426 19.9844C201.426 20.5833 201.406 21.1823 201.367 21.7812C201.341 22.3802 201.315 22.9792 201.289 23.5781C201.276 24.1771 201.283 24.776 201.309 25.375C201.322 25.6224 201.243 25.8112 201.074 25.9414C200.918 26.0586 200.742 26.1172 200.547 26.1172C200.352 26.1172 200.169 26.0586 200 25.9414C199.844 25.8112 199.759 25.6224 199.746 25.375C199.004 25.6875 198.216 25.8698 197.383 25.9219C196.549 25.9609 195.755 25.8112 195 25.4727ZM195.137 21.2344C195.059 21.4688 194.987 21.7357 194.922 22.0352C194.857 22.3346 194.837 22.6211 194.863 22.8945C194.889 23.168 194.974 23.4219 195.117 23.6562C195.26 23.8776 195.495 24.0339 195.82 24.125C196.484 24.3333 197.148 24.3919 197.812 24.3008C198.49 24.2096 199.121 23.9753 199.707 23.5977C199.759 22.9596 199.798 22.3411 199.824 21.7422C199.863 21.1432 199.876 20.5378 199.863 19.9258C199.642 19.7826 199.414 19.6589 199.18 19.5547C198.958 19.4375 198.711 19.3594 198.438 19.3203C198.164 19.2812 197.871 19.2552 197.559 19.2422C197.259 19.2161 196.966 19.2161 196.68 19.2422C196.654 19.2422 196.582 19.2617 196.465 19.3008C196.361 19.3268 196.302 19.3464 196.289 19.3594C196.159 19.4245 196.042 19.5286 195.938 19.6719C195.768 19.9062 195.618 20.1602 195.488 20.4336C195.358 20.694 195.241 20.9609 195.137 21.2344ZM199.492 16C199.219 16.1042 198.932 16.1367 198.633 16.0977C198.346 16.0456 198.086 15.9284 197.852 15.7461C197.669 15.6029 197.493 15.4466 197.324 15.2773C197.155 15.0951 196.953 14.9844 196.719 14.9453C196.497 14.9062 196.283 14.9453 196.074 15.0625C195.879 15.1797 195.71 15.3099 195.566 15.4531C195.384 15.6354 195.189 15.7135 194.98 15.6875C194.785 15.6615 194.616 15.5833 194.473 15.4531C194.342 15.3099 194.258 15.1406 194.219 14.9453C194.193 14.737 194.271 14.5417 194.453 14.3594C194.674 14.138 194.922 13.9492 195.195 13.793C195.469 13.6367 195.755 13.526 196.055 13.4609C196.367 13.3828 196.673 13.3698 196.973 13.4219C197.285 13.4609 197.585 13.5651 197.871 13.7344C198.118 13.9036 198.333 14.0859 198.516 14.2812C198.581 14.3464 198.639 14.4049 198.691 14.457C198.743 14.4961 198.802 14.5286 198.867 14.5547C198.945 14.5677 199.023 14.5482 199.102 14.4961C199.18 14.431 199.258 14.3594 199.336 14.2812C199.414 14.1901 199.486 14.099 199.551 14.0078C199.616 13.9036 199.668 13.8255 199.707 13.7734C199.85 13.6042 200.033 13.526 200.254 13.5391C200.475 13.5521 200.658 13.6302 200.801 13.7734C200.97 13.9297 201.048 14.112 201.035 14.3203C201.022 14.5156 200.944 14.6979 200.801 14.8672C200.618 15.0885 200.43 15.3099 200.234 15.5312C200.039 15.7396 199.792 15.8958 199.492 16Z" fill="#292524"/>
</svg>
