<svg width="99" height="14" viewBox="0 0 99 14" fill="none" xmlns="http://www.w3.org/2000/svg">
<path d="M9.06816 11.36C9.06816 11.84 8.94816 12.28 8.70816 12.68C8.46816 13.08 8.14816 13.4 7.74816 13.64C7.34816 13.88 6.90816 14 6.42816 14H2.82816C2.34816 14 1.9015 13.88 1.48816 13.64C1.08816 13.4 0.768164 13.08 0.528164 12.68C0.288164 12.28 0.168164 11.84 0.168164 11.36V3.14C0.168164 2.64667 0.288164 2.2 0.528164 1.8C0.768164 1.4 1.08816 1.08 1.48816 0.839999C1.9015 0.599999 2.34816 0.479999 2.82816 0.479999H6.42816C6.90816 0.479999 7.34816 0.599999 7.74816 0.839999C8.14816 1.08 8.46816 1.4 8.70816 1.8C8.94816 2.2 9.06816 2.64667 9.06816 3.14V3.68C9.06816 3.93333 8.9815 4.14667 8.80816 4.32C8.63483 4.49333 8.41483 4.58 8.14816 4.58H7.60816C7.35483 4.58 7.13483 4.49333 6.94816 4.32C6.77483 4.14667 6.68816 3.93333 6.68816 3.68V3.14C6.68816 2.95333 6.6015 2.86 6.42816 2.86H2.82816C2.65483 2.86 2.56816 2.95333 2.56816 3.14V11.36C2.56816 11.4267 2.59483 11.4933 2.64816 11.56C2.7015 11.6133 2.7615 11.64 2.82816 11.64H6.42816C6.49483 11.64 6.55483 11.6133 6.60816 11.56C6.6615 11.4933 6.68816 11.4267 6.68816 11.36V10.76C6.68816 10.5067 6.77483 10.2933 6.94816 10.12C7.13483 9.93333 7.35483 9.84 7.60816 9.84H8.14816C8.41483 9.84 8.63483 9.93333 8.80816 10.12C8.9815 10.2933 9.06816 10.5067 9.06816 10.76V11.36ZM23.8555 11.36C23.8555 11.84 23.7355 12.28 23.4955 12.68C23.2555 13.08 22.9355 13.4 22.5355 13.64C22.1355 13.88 21.6955 14 21.2155 14H17.3755C16.8955 14 16.4488 13.88 16.0355 13.64C15.6355 13.4 15.3155 13.08 15.0755 12.68C14.8355 12.28 14.7155 11.84 14.7155 11.36V3.14C14.7155 2.64667 14.8355 2.2 15.0755 1.8C15.3155 1.4 15.6355 1.08 16.0355 0.839999C16.4488 0.599999 16.8955 0.479999 17.3755 0.479999H21.2155C21.6955 0.479999 22.1355 0.599999 22.5355 0.839999C22.9355 1.08 23.2555 1.4 23.4955 1.8C23.7355 2.2 23.8555 2.64667 23.8555 3.14V11.36ZM21.4755 11.36V3.14C21.4755 2.95333 21.3888 2.86 21.2155 2.86H17.3755C17.3088 2.86 17.2422 2.88667 17.1755 2.94C17.1222 2.99333 17.0955 3.06 17.0955 3.14V11.36C17.0955 11.4267 17.1222 11.4933 17.1755 11.56C17.2422 11.6133 17.3088 11.64 17.3755 11.64H21.2155C21.2822 11.64 21.3422 11.6133 21.3955 11.56C21.4488 11.4933 21.4755 11.4267 21.4755 11.36ZM38.6368 13.08C38.6368 13.3333 38.5434 13.5533 38.3568 13.74C38.1834 13.9133 37.9701 14 37.7168 14H37.1368C36.7768 14 36.5101 13.8467 36.3368 13.54L32.0768 6.16C32.0501 6.10667 32.0101 6.09333 31.9568 6.12C31.9034 6.13333 31.8768 6.16 31.8768 6.2V13.08C31.8768 13.3333 31.7834 13.5533 31.5968 13.74C31.4234 13.9133 31.2168 14 30.9768 14H30.4168C30.1634 14 29.9434 13.9133 29.7568 13.74C29.5834 13.5533 29.4968 13.3333 29.4968 13.08V1.4C29.4968 1.13333 29.5834 0.913333 29.7568 0.739999C29.9434 0.566666 30.1634 0.479999 30.4168 0.479999H30.9968C31.3568 0.479999 31.6234 0.633332 31.7968 0.939999L36.0568 8.32C36.0968 8.37333 36.1368 8.39333 36.1768 8.38C36.2301 8.36667 36.2568 8.33333 36.2568 8.28V1.4C36.2568 1.13333 36.3434 0.913333 36.5168 0.739999C36.7034 0.566666 36.9234 0.479999 37.1768 0.479999H37.7168C37.9701 0.479999 38.1834 0.566666 38.3568 0.739999C38.5434 0.913333 38.6368 1.13333 38.6368 1.4V13.08ZM54.598 1.68L50.718 13.38C50.6647 13.5533 50.5513 13.7 50.378 13.82C50.218 13.94 50.0447 14 49.858 14H49.038C48.8513 14 48.678 13.94 48.518 13.82C48.3713 13.7 48.2647 13.5533 48.198 13.38L44.318 1.68C44.2113 1.38667 44.2513 1.11333 44.438 0.86C44.6113 0.606666 44.858 0.479999 45.178 0.479999H45.758C46.198 0.479999 46.4913 0.686666 46.638 1.1L49.338 9.34C49.418 9.43333 49.4913 9.43333 49.558 9.34C49.838 8.47333 50.1247 7.58667 50.418 6.68C50.7247 5.76 51.0113 4.9 51.278 4.1C51.5447 3.28667 51.7647 2.61333 51.938 2.08L52.258 1.1C52.3247 0.913333 52.438 0.766666 52.598 0.659999C52.7713 0.539999 52.9513 0.479999 53.138 0.479999H53.718C54.038 0.479999 54.2847 0.606666 54.458 0.86C54.6447 1.1 54.6913 1.37333 54.598 1.68ZM68.9107 13.08C68.9107 13.3333 68.8173 13.5533 68.6307 13.74C68.4573 13.9133 68.2507 14 68.0107 14H61.1307C60.8907 14 60.6773 13.9133 60.4907 13.74C60.3173 13.5533 60.2307 13.3333 60.2307 13.08V1.4C60.2307 1.13333 60.3173 0.913333 60.4907 0.739999C60.6773 0.566666 60.8907 0.479999 61.1307 0.479999H68.0107C68.2507 0.479999 68.4573 0.566666 68.6307 0.739999C68.8173 0.913333 68.9107 1.13333 68.9107 1.4V1.94C68.9107 2.19333 68.8173 2.41333 68.6307 2.6C68.4573 2.77333 68.2507 2.86 68.0107 2.86H62.8507C62.6907 2.86 62.6107 2.94667 62.6107 3.12V5.78C62.6107 5.96667 62.6907 6.06 62.8507 6.06H67.2907C67.5573 6.06 67.7773 6.14667 67.9507 6.32C68.124 6.49333 68.2107 6.70667 68.2107 6.96V7.52C68.2107 7.77333 68.124 7.99333 67.9507 8.18C67.7773 8.35333 67.5573 8.44 67.2907 8.44H62.8507C62.6907 8.44 62.6107 8.52 62.6107 8.68V11.38C62.6107 11.5533 62.6907 11.64 62.8507 11.64H68.0107C68.2507 11.64 68.4573 11.7267 68.6307 11.9C68.8173 12.0733 68.9107 12.2933 68.9107 12.56V13.08ZM83.5641 12.74C83.6974 13.0467 83.6774 13.3267 83.5041 13.58C83.3041 13.86 83.0508 14 82.7441 14H82.1441C81.9708 14 81.7974 13.9467 81.6241 13.84C81.4641 13.7333 81.3508 13.6 81.2841 13.44L79.4041 8.94C79.3374 8.78 79.2174 8.7 79.0441 8.7H77.1841C77.0108 8.7 76.9241 8.78667 76.9241 8.96V13.08C76.9241 13.3333 76.8308 13.5533 76.6441 13.74C76.4708 13.9133 76.2574 14 76.0041 14H75.4441C75.1908 14 74.9774 13.9133 74.8041 13.74C74.6441 13.5533 74.5641 13.3333 74.5641 13.08V1.4C74.5641 1.13333 74.6441 0.913333 74.8041 0.739999C74.9774 0.566666 75.1908 0.479999 75.4441 0.479999H80.8641C81.3441 0.479999 81.7841 0.599999 82.1841 0.839999C82.5841 1.08 82.9041 1.4 83.1441 1.8C83.3841 2.2 83.5041 2.64667 83.5041 3.14V6.06C83.5041 6.58 83.3641 7.05333 83.0841 7.48C82.8174 7.89333 82.4641 8.21333 82.0241 8.44C81.9708 8.45333 81.9308 8.5 81.9041 8.58C81.8774 8.64667 81.8841 8.71333 81.9241 8.78L83.5641 12.74ZM81.1241 6.06V3.14C81.1241 2.95333 81.0374 2.86 80.8641 2.86H77.1841C77.0108 2.86 76.9241 2.94667 76.9241 3.12V6.06C76.9241 6.23333 77.0108 6.32 77.1841 6.32H80.8641C81.0374 6.32 81.1241 6.23333 81.1241 6.06ZM98.2054 1.94C98.2054 2.19333 98.1187 2.41333 97.9454 2.6C97.772 2.77333 97.552 2.86 97.2854 2.86H95.1854C95.012 2.86 94.9254 2.94667 94.9254 3.12V13.08C94.9254 13.3333 94.832 13.5533 94.6454 13.74C94.472 13.9133 94.2587 14 94.0054 14H93.4854C93.232 14 93.012 13.9133 92.8254 13.74C92.652 13.5533 92.5654 13.3333 92.5654 13.08V3.12C92.5654 2.94667 92.4787 2.86 92.3054 2.86H90.1854C89.932 2.86 89.712 2.77333 89.5254 2.6C89.352 2.41333 89.2654 2.19333 89.2654 1.94V1.4C89.2654 1.13333 89.352 0.913333 89.5254 0.739999C89.712 0.566666 89.932 0.479999 90.1854 0.479999H97.2854C97.552 0.479999 97.772 0.566666 97.9454 0.739999C98.1187 0.913333 98.2054 1.13333 98.2054 1.4V1.94Z" fill="#4A5DCD"/>
</svg>
